# xmcd
#
# Track frame offsets: 
#        150
#        13145
#        26950
#        38680
#        50122
#        59182
#        71825
#        83312
#        95882
#        110470
#        121175
#        134502
#
# Disc length: 1950 seconds
#
# Revision: 0
# Processed by: cddbd v1.5.2PL0 Copyright (c) Steve Scherf et al.
# Submitted via: ExactAudioCopyFreeDBPlugin 1.0
#
DISCID=b0079c0c
DTITLE=Various Artist - More Legendary Country
DYEAR=1900
DGENRE=Country
TTITLE0=Lynn Anderson - (I Never Promised You A) Rose Garden
TTITLE1=Ronnie Milsap - Kentucky Woman
TTITLE2=Waylon Jennings - Crying
TTITLE3=Patsy Cline - he Heart You Break Maybe Your Own
TTITLE4=Willlie Nelson - Wasting Time
TTITLE5=Ferlin Husky - I Can't Stop Loving You
TTITLE6=Kenny Rogers - The First Edition - Me And Bobby McGee
TTITLE7=Freddy Fender - Tell It Like It Is
TTITLE8=Johnny Paycheck - Green, Green Grass Of Home
TTITLE9=Billie Jo Spears - I'm So Lonesome I Could Cry
TTITLE10=Clarence Carter - Patches
TTITLE11=Frankie Laine - Your Cheatin' Heart
EXTD=
EXTT0=
EXTT1=
EXTT2=
EXTT3=
EXTT4=
EXTT5=
EXTT6=
EXTT7=
EXTT8=
EXTT9=
EXTT10=
EXTT11=
PLAYORDER=
